<svg xmlns="http://www.w3.org/2000/svg">
  <!-- Plexify icon library — single cohesive set (Lucide-style 24px strokes,
       2px, round joins). Render at 12-16px via .icn; color = currentColor. -->
  <symbol id="i-refresh" viewBox="0 0 24 24"><path d="M3 12a9 9 0 0 1 9-9 9.75 9.75 0 0 1 6.74 2.74L21 8"/><path d="M21 3v5h-5"/><path d="M21 12a9 9 0 0 1-9 9 9.75 9.75 0 0 1-6.74-2.74L3 16"/><path d="M8 16H3v5"/></symbol>
  <symbol id="i-zap" viewBox="0 0 24 24"><polygon points="13 2 3 14 12 14 11 22 21 10 12 10 13 2"/></symbol>
  <symbol id="i-pause" viewBox="0 0 24 24"><rect x="14" y="4" width="4" height="16"/><rect x="6" y="4" width="4" height="16"/></symbol>
  <symbol id="i-play" viewBox="0 0 24 24"><polygon points="6 3 20 12 6 21 6 3"/></symbol>
  <symbol id="i-link" viewBox="0 0 24 24"><path d="M9 17H7A5 5 0 0 1 7 7h2"/><path d="M15 7h2a5 5 0 1 1 0 10h-2"/><line x1="8" x2="16" y1="12" y2="12"/></symbol>
  <symbol id="i-heart" viewBox="0 0 24 24"><path d="M19 14c1.49-1.46 3-3.21 3-5.5A5.5 5.5 0 0 0 16.5 3c-1.76 0-3 .5-4.5 2-1.5-1.5-2.74-2-4.5-2A5.5 5.5 0 0 0 2 8.5c0 2.3 1.5 4.05 3 5.5l7 7Z"/></symbol>
  <symbol id="i-music" viewBox="0 0 24 24"><path d="M9 18V5l12-2v13"/><circle cx="6" cy="18" r="3"/><circle cx="18" cy="16" r="3"/></symbol>
  <symbol id="i-arrow-up" viewBox="0 0 24 24"><path d="m5 12 7-7 7 7"/><path d="M12 19V5"/></symbol>
  <symbol id="i-alert" viewBox="0 0 24 24"><path d="m21.73 18-8-14a2 2 0 0 0-3.46 0l-8 14A2 2 0 0 0 4 21h16a2 2 0 0 0 1.73-3Z"/><path d="M12 9v4"/><path d="M12 17h.01"/></symbol>
  <symbol id="i-check" viewBox="0 0 24 24"><path d="M20 6 9 17l-5-5"/></symbol>
  <symbol id="i-x" viewBox="0 0 24 24"><path d="M18 6 6 18"/><path d="M6 6l12 12"/></symbol>
  <symbol id="i-sun" viewBox="0 0 24 24"><circle cx="12" cy="12" r="4"/><path d="M12 2v2"/><path d="M12 20v2"/><path d="m4.93 4.93 1.41 1.41"/><path d="m17.66 17.66 1.41 1.41"/><path d="M2 12h2"/><path d="M20 12h2"/><path d="m6.34 17.66-1.41 1.41"/><path d="m19.07 4.93-1.41 1.41"/></symbol>
  <symbol id="i-moon" viewBox="0 0 24 24"><path d="M12 3a6 6 0 0 0 9 9 9 9 0 1 1-9-9Z"/></symbol>
  <symbol id="i-lock" viewBox="0 0 24 24"><rect x="3" y="11" width="18" height="11"/><path d="M7 11V7a5 5 0 0 1 10 0v4"/></symbol>
  <symbol id="i-archive" viewBox="0 0 24 24"><rect x="3" y="4" width="18" height="4"/><path d="M5 8v11a1 1 0 0 0 1 1h12a1 1 0 0 0 1-1V8"/><path d="M10 12h4"/></symbol>
  <symbol id="i-hourglass" viewBox="0 0 24 24"><path d="M5 22h14"/><path d="M5 2h14"/><path d="M17 22v-4.172a2 2 0 0 0-.586-1.414L12 12l-4.414 4.414A2 2 0 0 0 7 17.828V22"/><path d="M7 2v4.172a2 2 0 0 0 .586 1.414L12 12l4.414-4.414A2 2 0 0 0 17 6.172V2"/></symbol>
</svg>
