<?xml version="1.0" encoding="UTF-8"?>
<svg id="Layer_1" data-name="Layer 1" xmlns="http://www.w3.org/2000/svg" viewBox="0 0 408.31 279.16">
  <defs>
    <style>
      .cls-1 {
        fill: #f8f8f5;
      }

      .cls-2 {
        fill: #61cd53;
      }

      .cls-3 {
        fill: #e37a11;
      }

      .cls-4 {
        fill: #8ac051;
      }
    </style>
  </defs>
  <path class="cls-1" d="M69.63,121.38c-5.69-5.2-2.13-13.46,4.71-16.16,30.68-12.11,81.87-7.41,111.65,6.3,6.96,3.2,18.5,8.31,14.56,17.92-4.79,11.7-19.82-.28-27.25-3.23-20.42-8.11-46.69-10.87-68.47-8.51-8.45.92-21.62,5.87-28.05,6.05-2.12.06-5.61-.98-7.15-2.38Z"/>
  <path class="cls-1" d="M106.11,132c21.82-1.92,61.22,3.65,78.69,17.71,7.28,5.86,2.93,15.21-5.92,13.94-3.5-.5-9.91-5.41-13.9-7.13-16.75-7.22-38.01-10.11-56.17-8.81-10.08.72-19.56,4.36-29.5,5.57-5.84-1.29-8.38-8.93-3.96-13.03s24.12-7.67,30.75-8.25Z"/>
  <path class="cls-1" d="M109.11,163c16.22-1.27,34.02,1.34,49.18,7.22,5.37,2.08,20.03,8.18,18.87,14.74-1.83,10.3-13.44,1.51-18.17-.43-18.42-7.57-34.04-10.38-54.05-7.7-5.23.7-20.35,5.45-23.66,4.46-6.36-1.89-5.97-9.3-.34-12.46,5.06-2.84,21.94-5.35,28.17-5.84Z"/>
  <path class="cls-3" d="M257.31,270.7c-1.4-1.36,4.16-8.77,5.19-10.31,25.88-38.95,55.54-75.63,81.28-114.73,2.92-7.39-11.5-15.17-8.73-21.67l30.23-34.82,4.45-2.54,34.41,48.75c5.45,8.95-.44,16.8-5.39,24.25-6,9.05-14.01,17.71-20.07,26.42-16.55,23.79-35.24,56.3-53.95,77.56-1.1,1.25-7.74,7.09-8.91,7.09h-58.5Z"/>
  <path class="cls-3" d="M313.26,13.18c5.05,1.6,6.75,7.48,9.22,10.84,3.07,4.17,15.93,22.33,15.93,24.18,0,3.86-27.9,34.74-32.74,39.42-1.5.26-3.83-2.89-4.78-4.01-14.78-17.45-32.79-45.82-44.94-65.57-.88-1.44-1.37-2.56-3.64-6.35,7.05,1.3,54.72-1.71,57,0"/>
  <path class="cls-1" d="M221.67,186.34c-5.19-5.17-2.72-16.44,5.2-17.59,18.24,1.87,42.36-2.74,59.88,0,8.8,1.38,8.58,15.31,2.11,19-3.7,2.11-33.15.86-40.1.9-4.11.03-8.18,1.25-13,1.08-3.67-.13-11.68-.98-14.1-3.39Z"/>
  <path class="cls-4" d="M304.31,153.7c-1.5.41-1.97.71-4,1l4-1Z"/>
  <path class="cls-3" d="M350.31,51.7c-6.74,5.32-29.27,45.9-48.47,47.03-15.18,3.68-73.93-5.06-81.19,4.9-.67,1.02-1.59,1.23-2.14,3.79-1.33,6.23-.23,11.7,9.37,13.21,27.56-1.33,57.12,2.01,84.44.06,14-.99,18.22-5.87,27.05-15.49,1.08-1.18.8-3.35.95-3.51M339.37,105.21c9.19-10.19,19.86-24.21,28.95-34.51,1.56-1.77,10.11-11.15,11.36-10.93,1.73.31,17.56,17.8,19.63,15.93l9-70.99-67.99,18c-2.08,1.99,19.26,17.87,17.87,19.69-1.83,2.38-5.79,5.86-7.88,9.31M293.84,103.74l-.05-.02s.02,0,.05.02Z"/>
  <path class="cls-2" d="M293.83,132.68c-18.61-.2-45.21-1.98-62.9.13-15.53,1.85-16.7,19.18-2.02,22.8,23.41-1.2,48.43,2.37,71.41-.91l3.85-.72c.32-.09.87-.18,1.15-.28.52-.19,1.53-.92,1.77-1.16.23-.23.61-.29,1.14-.83,1.91-1.94,2.17-1.59,2.86-4.75,1.02-4.64-1.35-10.79-5.79-12.74"/>
  <path class="cls-2" d="M212.31,203.7l9.58-.21c-3.59-.24-7.03-.37-9.58.21Z"/>
  <path class="cls-2" d="M220.08,0c-2.28,3.32-12.92,21.08-15.41,21.54C129.92-20.32,38.71,14.2,9.31,93.7-.91,121.35-2.93,145.82,4.31,174.7c26.94,107.4,163.16,142.07,235.51,56.01,2.49-2.96,19.8-25.78,17.48-28.01l-35.42.78s0,0,.01,0c-3.59-.24-7.04-.37-9.59.21-1.98.45-2.89,3.05-4,4-29.55,25.31-53.78,38.34-94.43,28.93C33.19,217.95,13.97,108.39,81.31,60.7c21.92-15.52,51.09-20.7,77.2-14.7,4.77,1.1,19.2,5.28,21.8,8.7-1.08,2.24-13.98,17.9-13,18.99l83.42,9.89M230.22,203.94c.29,0,.57,0,.84,0-.28,0-.56,0-.84,0ZM224.61,203.67s-.03,0-.04,0c.01,0,.03,0,.04,0ZM234.31,203.7c-.41.06-.84.11-1.28.15.44-.04.87-.08,1.28-.15ZM232.56,203.88c-.3.02-.59.04-.9.05.31,0,.6-.03.9-.05ZM229.54,203.93c-.27,0-.54-.01-.82-.02.27,0,.55.02.82.02ZM227.98,203.88c-.26-.01-.52-.02-.79-.04.26.01.53.03.79.04ZM226.37,203.79c-.23-.01-.47-.03-.7-.04.23.02.47.03.7.04Z"/>
</svg>
