<?xml version="1.0" encoding="UTF-8"?>
<svg id="Layer_2" data-name="Layer 2" xmlns="http://www.w3.org/2000/svg" viewBox="0 0 1037.52 335.07">
  <g id="Layer_1-2" data-name="Layer 1" fill="#101214">
    <path d="M110.87,79.74c-26.7,0-44.13,7.79-58.95,25.94v-16.51c0-1.94-1.57-3.51-3.51-3.51H3.51C1.57,85.66,0,87.23,0,89.17v240.84c0,1.62,1.1,3.03,2.68,3.41.26.06.55.13.85.19,3.84.83,22.83,5.2,37.01-6.92,12.26-10.48,15.07-22.64,15.07-36.65v-35.68c14.82,15.93,31.9,22.61,55.61,22.61,51.17,0,90.46-41.52,90.46-96.77,0-58.95-37.82-100.47-90.82-100.47ZM576.59,235.32l11.29,16.43c10.87,17.07,24.86,25.19,41.49,25.25,14.98-.29,26.24-11.84,31.9-18.4,1.23-1.42,1.13-3.55-.23-4.84-3.27-3.1-9.5-9.29-16.65-17.78-14.38-17.07-33.76-48.8-34.48-50.14l-33.31,49.47ZM487.46,180.96c0-57.84-42.27-101.22-97.88-101.22s-96.41,44.13-96.41,99.36c-.62,53.44,42.21,97.26,95.65,97.88.62,0,1.25,0,1.87,0,37.62,0,70.14-21.41,88.14-58.7,1.13-2.34-.54-5.07-3.15-5.07h-49.81c-.93,0-1.82.37-2.48,1.03l-1.56,1.56c-11.87,11.12-20.02,14.82-34.12,14.82-21.88,0-38.18-14.07-40.4-35.2h135.72c1.71,0,3.17-1.23,3.46-2.92.71-4.07.97-6.68.97-11.54ZM274.15,174.87c0,21.38,3.06,47.3,24.14,75.69h0c.95,1.17,1.04,2.83.24,4.11-8.42,13.41-20.02,22.28-33.38,22.28-11.1,0-22.64-5.87-31.64-16.1-9.7-11.09-15.02-25.34-14.96-40.07V27.63c0-1.94,1.57-3.51,3.51-3.51h48.62c1.94,0,3.51,1.57,3.51,3.51l-.03,147.23ZM530.42,271.08h-57.99c-2.81,0-4.48-3.14-2.91-5.47l58.79-87.18-58.8-87.27c-1.57-2.33.1-5.47,2.91-5.47h58c1.17,0,2.26.58,2.91,1.55l61.47,91.19-61.47,91.11c-.65.97-1.74,1.55-2.91,1.55ZM99.36,225.81c-25.94,0-46.72-21.5-46.72-47.83s21.13-46.33,46.72-46.33,46.72,20.38,46.72,46.72-20.38,47.44-46.72,47.44ZM609.93,170.92l53.76-79.79c1.57-2.33-.1-5.47-2.91-5.47h-58.02c-1.17,0-2.26.58-2.91,1.55l-23.15,34.4,33.23,49.3ZM348.43,157.96c4.45-19.63,20.02-31.51,41.52-31.51s38.18,12.99,41.91,31.51h-83.42Z"/>
    <path d="M820.99,82.99v-5.76c0-16.95,6.5-24.5,21.06-24.5,8.69,0,15.68,1.73,23.5,4.33.97.3,1.96.15,2.74-.43.8-.58,1.26-1.5,1.26-2.48V19.03c0-1.34-.84-2.53-2.16-2.93-8.24-2.46-18.8-4.98-34.64-4.98-38.48,0-58.86,21.68-58.86,62.68v8.82h-20.03c-1.67,0-3.06,1.37-3.06,3.05v36.01c0,1.68,1.38,3.06,3.06,3.06h20.03v142.97c0,1.71,1.38,3.06,3.06,3.06h41.66c1.71,0,3.06-1.35,3.06-3.06V124.76h38.93l59.63,142.96c-6.76,15-13.43,18-22.51,18-7.34,0-15.1-2.19-22.99-6.54-.74-.39-1.64-.45-2.41-.23-.8.29-1.48.87-1.8,1.64l-14.13,31.01c-.68,1.48-.1,3.19,1.32,3.96,14.75,7.99,28.04,11.4,44.5,11.4,30.78,0,47.81-14.36,62.79-52.93l72.32-186.87c.39-.94.26-2-.32-2.84-.55-.83-1.48-1.33-2.48-1.33h-43.4c-1.32,0-2.48.83-2.9,2.05l-44.47,126.97-48.68-127.05c-.45-1.18-1.58-1.96-2.83-1.96h-71.22s0,0,0,0Z"/>
    <path d="M728.32,82.81h-41.7c-1.67,0-3.06,1.37-3.06,3.06v181.86c0,1.71,1.38,3.06,3.06,3.06h41.7c1.67,0,3.06-1.35,3.06-3.06V85.88c0-1.68-1.35-3.06-3.06-3.06h0Z"/>
    <path d="M707.72,0c-16.52,0-29.91,13.37-29.91,29.88s13.39,29.91,29.91,29.91,29.88-13.38,29.88-29.91-13.39-29.88-29.88-29.88Z"/>
  </g>
</svg>
