<?xml version="1.0" encoding="UTF-8"?>
<svg id="Layer_2" data-name="Layer 2" xmlns="http://www.w3.org/2000/svg" viewBox="0 0 134.97 198.77">
  <defs>
    <style>
      .cls-1 {
        fill: #1ed760;
      }
    </style>
  </defs>
  <g id="Layer_2-2" data-name="Layer 2">
    <g id="Layer_1-2" data-name="Layer 1-2">
      <path class="cls-1" d="M65.95,198.77H3.77c-3.01,0-4.81-3.37-3.12-5.87l63.04-93.47L.65,5.87C-1.03,3.37.76,0,3.77,0h62.18c1.25,0,2.42.62,3.12,1.66l65.9,97.77-65.9,97.68c-.7,1.04-1.87,1.66-3.12,1.66h0Z"/>
      <path class="cls-1" d="M65.95,198.77H3.77c-3.01,0-4.81-3.37-3.12-5.87l63.04-93.47L.65,5.87C-1.03,3.37.76,0,3.77,0h62.18c1.25,0,2.42.62,3.12,1.66l65.9,97.77-65.9,97.68c-.7,1.04-1.87,1.66-3.12,1.66h0Z"/>
    </g>
  </g>
</svg>